ffmpeg version 4.1.6-1~deb10u1+rpt1 Copyright (c) 2000-2020 the FFmpeg developers
  built with gcc 8 (Raspbian 8.3.0-6+rpi1)
  configuration: --prefix=/usr --extra-version='1~deb10u1+rpt1' --toolchain=hardened --incdir=/usr/include/arm-linux-gnueabihf --enable-gpl --disable-stripping --enable-avresample --disable-filter=resample --enable-avisynth --enable-gnutls --enable-ladspa --enable-libaom --enable-libass --enable-libbluray --enable-libbs2b --enable-libcaca --enable-libcdio --enable-libcodec2 --enable-libflite --enable-libfontconfig --enable-libfreetype --enable-libfribidi --enable-libgme --enable-libgsm --enable-libjack --enable-libmp3lame --enable-libmysofa --enable-libopenjpeg --enable-libopenmpt --enable-libopus --enable-libpulse --enable-librsvg --enable-librubberband --enable-libshine --enable-libsnappy --enable-libsoxr --enable-libspeex --enable-libssh --enable-libtheora --enable-libtwolame --enable-libvidstab --enable-libvorbis --enable-libvpx --enable-libwavpack --enable-libwebp --enable-libx265 --enable-libxml2 --enable-libxvid --enable-libzmq --enable-libzvbi --enable-lv2 --enable-omx --enable-openal --enable-opengl --enable-sdl2 --enable-omx-rpi --enable-mmal --enable-neon --enable-rpi --enable-libdc1394 --enable-libdrm --enable-libiec61883 --enable-chromaprint --enable-frei0r --enable-libx264 --enable-shared --libdir=/usr/lib/arm-linux-gnueabihf --cpu=arm1176jzf-s --arch=arm
  WARNING: library configuration mismatch
  avutil      configuration: --prefix=/usr --extra-version='1~deb10u1+rpt1' --toolchain=hardened --incdir=/usr/include/arm-linux-gnueabihf --enable-gpl --disable-stripping --enable-avresample --disable-filter=resample --enable-avisynth --enable-gnutls --enable-ladspa --enable-libaom --enable-libass --enable-libbluray --enable-libbs2b --enable-libcaca --enable-libcdio --enable-libcodec2 --enable-libflite --enable-libfontconfig --enable-libfreetype --enable-libfribidi --enable-libgme --enable-libgsm --enable-libjack --enable-libmp3lame --enable-libmysofa --enable-libopenjpeg --enable-libopenmpt --enable-libopus --enable-libpulse --enable-librsvg --enable-librubberband --enable-libshine --enable-libsnappy --enable-libsoxr --enable-libspeex --enable-libssh --enable-libtheora --enable-libtwolame --enable-libvidstab --enable-libvorbis --enable-libvpx --enable-libwavpack --enable-libwebp --enable-libx265 --enable-libxml2 --enable-libxvid --enable-libzmq --enable-libzvbi --enable-lv2 --enable-omx --enable-openal --enable-opengl --enable-sdl2 --enable-omx-rpi --enable-mmal --enable-neon --enable-rpi --enable-libdc1394 --enable-libdrm --enable-libiec61883 --enable-chromaprint --enable-frei0r --enable-libx264 --libdir=/usr/lib/arm-linux-gnueabihf/neon/vfp --cpu=cortex-a7 --arch=armv6t2 --disable-thumb --enable-shared --disable-doc --disable-programs
  avcodec     configuration: --prefix=/usr --extra-version='1~deb10u1+rpt1' --toolchain=hardened --incdir=/usr/include/arm-linux-gnueabihf --enable-gpl --disable-stripping --enable-avresample --disable-filter=resample --enable-avisynth --enable-gnutls --enable-ladspa --enable-libaom --enable-libass --enable-libbluray --enable-libbs2b --enable-libcaca --enable-libcdio --enable-libcodec2 --enable-libflite --enable-libfontconfig --enable-libfreetype --enable-libfribidi --enable-libgme --enable-libgsm --enable-libjack --enable-libmp3lame --enable-libmysofa --enable-libopenjpeg --enable-libopenmpt --enable-libopus --enable-libpulse --enable-librsvg --enable-librubberband --enable-libshine --enable-libsnappy --enable-libsoxr --enable-libspeex --enable-libssh --enable-libtheora --enable-libtwolame --enable-libvidstab --enable-libvorbis --enable-libvpx --enable-libwavpack --enable-libwebp --enable-libx265 --enable-libxml2 --enable-libxvid --enable-libzmq --enable-libzvbi --enable-lv2 --enable-omx --enable-openal --enable-opengl --enable-sdl2 --enable-omx-rpi --enable-mmal --enable-neon --enable-rpi --enable-libdc1394 --enable-libdrm --enable-libiec61883 --enable-chromaprint --enable-frei0r --enable-libx264 --libdir=/usr/lib/arm-linux-gnueabihf/neon/vfp --cpu=cortex-a7 --arch=armv6t2 --disable-thumb --enable-shared --disable-doc --disable-programs
  avformat    configuration: --prefix=/usr --extra-version='1~deb10u1+rpt1' --toolchain=hardened --incdir=/usr/include/arm-linux-gnueabihf --enable-gpl --disable-stripping --enable-avresample --disable-filter=resample --enable-avisynth --enable-gnutls --enable-ladspa --enable-libaom --enable-libass --enable-libbluray --enable-libbs2b --enable-libcaca --enable-libcdio --enable-libcodec2 --enable-libflite --enable-libfontconfig --enable-libfreetype --enable-libfribidi --enable-libgme --enable-libgsm --enable-libjack --enable-libmp3lame --enable-libmysofa --enable-libopenjpeg --enable-libopenmpt --enable-libopus --enable-libpulse --enable-librsvg --enable-librubberband --enable-libshine --enable-libsnappy --enable-libsoxr --enable-libspeex --enable-libssh --enable-libtheora --enable-libtwolame --enable-libvidstab --enable-libvorbis --enable-libvpx --enable-libwavpack --enable-libwebp --enable-libx265 --enable-libxml2 --enable-libxvid --enable-libzmq --enable-libzvbi --enable-lv2 --enable-omx --enable-openal --enable-opengl --enable-sdl2 --enable-omx-rpi --enable-mmal --enable-neon --enable-rpi --enable-libdc1394 --enable-libdrm --enable-libiec61883 --enable-chromaprint --enable-frei0r --enable-libx264 --libdir=/usr/lib/arm-linux-gnueabihf/neon/vfp --cpu=cortex-a7 --arch=armv6t2 --disable-thumb --enable-shared --disable-doc --disable-programs
  avdevice    configuration: --prefix=/usr --extra-version='1~deb10u1+rpt1' --toolchain=hardened --incdir=/usr/include/arm-linux-gnueabihf --enable-gpl --disable-stripping --enable-avresample --disable-filter=resample --enable-avisynth --enable-gnutls --enable-ladspa --enable-libaom --enable-libass --enable-libbluray --enable-libbs2b --enable-libcaca --enable-libcdio --enable-libcodec2 --enable-libflite --enable-libfontconfig --enable-libfreetype --enable-libfribidi --enable-libgme --enable-libgsm --enable-libjack --enable-libmp3lame --enable-libmysofa --enable-libopenjpeg --enable-libopenmpt --enable-libopus --enable-libpulse --enable-librsvg --enable-librubberband --enable-libshine --enable-libsnappy --enable-libsoxr --enable-libspeex --enable-libssh --enable-libtheora --enable-libtwolame --enable-libvidstab --enable-libvorbis --enable-libvpx --enable-libwavpack --enable-libwebp --enable-libx265 --enable-libxml2 --enable-libxvid --enable-libzmq --enable-libzvbi --enable-lv2 --enable-omx --enable-openal --enable-opengl --enable-sdl2 --enable-omx-rpi --enable-mmal --enable-neon --enable-rpi --enable-libdc1394 --enable-libdrm --enable-libiec61883 --enable-chromaprint --enable-frei0r --enable-libx264 --libdir=/usr/lib/arm-linux-gnueabihf/neon/vfp --cpu=cortex-a7 --arch=armv6t2 --disable-thumb --enable-shared --disable-doc --disable-programs
  avfilter    configuration: --prefix=/usr --extra-version='1~deb10u1+rpt1' --toolchain=hardened --incdir=/usr/include/arm-linux-gnueabihf --enable-gpl --disable-stripping --enable-avresample --disable-filter=resample --enable-avisynth --enable-gnutls --enable-ladspa --enable-libaom --enable-libass --enable-libbluray --enable-libbs2b --enable-libcaca --enable-libcdio --enable-libcodec2 --enable-libflite --enable-libfontconfig --enable-libfreetype --enable-libfribidi --enable-libgme --enable-libgsm --enable-libjack --enable-libmp3lame --enable-libmysofa --enable-libopenjpeg --enable-libopenmpt --enable-libopus --enable-libpulse --enable-librsvg --enable-librubberband --enable-libshine --enable-libsnappy --enable-libsoxr --enable-libspeex --enable-libssh --enable-libtheora --enable-libtwolame --enable-libvidstab --enable-libvorbis --enable-libvpx --enable-libwavpack --enable-libwebp --enable-libx265 --enable-libxml2 --enable-libxvid --enable-libzmq --enable-libzvbi --enable-lv2 --enable-omx --enable-openal --enable-opengl --enable-sdl2 --enable-omx-rpi --enable-mmal --enable-neon --enable-rpi --enable-libdc1394 --enable-libdrm --enable-libiec61883 --enable-chromaprint --enable-frei0r --enable-libx264 --libdir=/usr/lib/arm-linux-gnueabihf/neon/vfp --cpu=cortex-a7 --arch=armv6t2 --disable-thumb --enable-shared --disable-doc --disable-programs
  avresample  configuration: --prefix=/usr --extra-version='1~deb10u1+rpt1' --toolchain=hardened --incdir=/usr/include/arm-linux-gnueabihf --enable-gpl --disable-stripping --enable-avresample --disable-filter=resample --enable-avisynth --enable-gnutls --enable-ladspa --enable-libaom --enable-libass --enable-libbluray --enable-libbs2b --enable-libcaca --enable-libcdio --enable-libcodec2 --enable-libflite --enable-libfontconfig --enable-libfreetype --enable-libfribidi --enable-libgme --enable-libgsm --enable-libjack --enable-libmp3lame --enable-libmysofa --enable-libopenjpeg --enable-libopenmpt --enable-libopus --enable-libpulse --enable-librsvg --enable-librubberband --enable-libshine --enable-libsnappy --enable-libsoxr --enable-libspeex --enable-libssh --enable-libtheora --enable-libtwolame --enable-libvidstab --enable-libvorbis --enable-libvpx --enable-libwavpack --enable-libwebp --enable-libx265 --enable-libxml2 --enable-libxvid --enable-libzmq --enable-libzvbi --enable-lv2 --enable-omx --enable-openal --enable-opengl --enable-sdl2 --enable-omx-rpi --enable-mmal --enable-neon --enable-rpi --enable-libdc1394 --enable-libdrm --enable-libiec61883 --enable-chromaprint --enable-frei0r --enable-libx264 --libdir=/usr/lib/arm-linux-gnueabihf/neon/vfp --cpu=cortex-a7 --arch=armv6t2 --disable-thumb --enable-shared --disable-doc --disable-programs
  swscale     configuration: --prefix=/usr --extra-version='1~deb10u1+rpt1' --toolchain=hardened --incdir=/usr/include/arm-linux-gnueabihf --enable-gpl --disable-stripping --enable-avresample --disable-filter=resample --enable-avisynth --enable-gnutls --enable-ladspa --enable-libaom --enable-libass --enable-libbluray --enable-libbs2b --enable-libcaca --enable-libcdio --enable-libcodec2 --enable-libflite --enable-libfontconfig --enable-libfreetype --enable-libfribidi --enable-libgme --enable-libgsm --enable-libjack --enable-libmp3lame --enable-libmysofa --enable-libopenjpeg --enable-libopenmpt --enable-libopus --enable-libpulse --enable-librsvg --enable-librubberband --enable-libshine --enable-libsnappy --enable-libsoxr --enable-libspeex --enable-libssh --enable-libtheora --enable-libtwolame --enable-libvidstab --enable-libvorbis --enable-libvpx --enable-libwavpack --enable-libwebp --enable-libx265 --enable-libxml2 --enable-libxvid --enable-libzmq --enable-libzvbi --enable-lv2 --enable-omx --enable-openal --enable-opengl --enable-sdl2 --enable-omx-rpi --enable-mmal --enable-neon --enable-rpi --enable-libdc1394 --enable-libdrm --enable-libiec61883 --enable-chromaprint --enable-frei0r --enable-libx264 --libdir=/usr/lib/arm-linux-gnueabihf/neon/vfp --cpu=cortex-a7 --arch=armv6t2 --disable-thumb --enable-shared --disable-doc --disable-programs
  swresample  configuration: --prefix=/usr --extra-version='1~deb10u1+rpt1' --toolchain=hardened --incdir=/usr/include/arm-linux-gnueabihf --enable-gpl --disable-stripping --enable-avresample --disable-filter=resample --enable-avisynth --enable-gnutls --enable-ladspa --enable-libaom --enable-libass --enable-libbluray --enable-libbs2b --enable-libcaca --enable-libcdio --enable-libcodec2 --enable-libflite --enable-libfontconfig --enable-libfreetype --enable-libfribidi --enable-libgme --enable-libgsm --enable-libjack --enable-libmp3lame --enable-libmysofa --enable-libopenjpeg --enable-libopenmpt --enable-libopus --enable-libpulse --enable-librsvg --enable-librubberband --enable-libshine --enable-libsnappy --enable-libsoxr --enable-libspeex --enable-libssh --enable-libtheora --enable-libtwolame --enable-libvidstab --enable-libvorbis --enable-libvpx --enable-libwavpack --enable-libwebp --enable-libx265 --enable-libxml2 --enable-libxvid --enable-libzmq --enable-libzvbi --enable-lv2 --enable-omx --enable-openal --enable-opengl --enable-sdl2 --enable-omx-rpi --enable-mmal --enable-neon --enable-rpi --enable-libdc1394 --enable-libdrm --enable-libiec61883 --enable-chromaprint --enable-frei0r --enable-libx264 --libdir=/usr/lib/arm-linux-gnueabihf/neon/vfp --cpu=cortex-a7 --arch=armv6t2 --disable-thumb --enable-shared --disable-doc --disable-programs
  postproc    configuration: --prefix=/usr --extra-version='1~deb10u1+rpt1' --toolchain=hardened --incdir=/usr/include/arm-linux-gnueabihf --enable-gpl --disable-stripping --enable-avresample --disable-filter=resample --enable-avisynth --enable-gnutls --enable-ladspa --enable-libaom --enable-libass --enable-libbluray --enable-libbs2b --enable-libcaca --enable-libcdio --enable-libcodec2 --enable-libflite --enable-libfontconfig --enable-libfreetype --enable-libfribidi --enable-libgme --enable-libgsm --enable-libjack --enable-libmp3lame --enable-libmysofa --enable-libopenjpeg --enable-libopenmpt --enable-libopus --enable-libpulse --enable-librsvg --enable-librubberband --enable-libshine --enable-libsnappy --enable-libsoxr --enable-libspeex --enable-libssh --enable-libtheora --enable-libtwolame --enable-libvidstab --enable-libvorbis --enable-libvpx --enable-libwavpack --enable-libwebp --enable-libx265 --enable-libxml2 --enable-libxvid --enable-libzmq --enable-libzvbi --enable-lv2 --enable-omx --enable-openal --enable-opengl --enable-sdl2 --enable-omx-rpi --enable-mmal --enable-neon --enable-rpi --enable-libdc1394 --enable-libdrm --enable-libiec61883 --enable-chromaprint --enable-frei0r --enable-libx264 --libdir=/usr/lib/arm-linux-gnueabihf/neon/vfp --cpu=cortex-a7 --arch=armv6t2 --disable-thumb --enable-shared --disable-doc --disable-programs
  libavutil      56. 22.100 / 56. 22.100
  libavcodec     58. 35.100 / 58. 35.100
  libavformat    58. 20.100 / 58. 20.100
  libavdevice    58.  5.100 / 58.  5.100
  libavfilter     7. 40.101 /  7. 40.101
  libavresample   4.  0.  0 /  4.  0.  0
  libswscale      5.  3.100 /  5.  3.100
  libswresample   3.  3.100 /  3.  3.100
  libpostproc    55.  3.100 / 55.  3.100
Input #0, lavfi, from 'anullsrc':
  Duration: N/A, start: 0.000000, bitrate: 705 kb/s
    Stream #0:0: Audio: pcm_u8, 44100 Hz, stereo, u8, 705 kb/s
Input #1, x11grab, from ':0.0':
  Duration: N/A, start: 1598184287.820706, bitrate: N/A
    Stream #1:0: Video: rawvideo (BGR[0] / 0x524742), bgr0, 720x480, 30 fps, 30 tbr, 1000k tbn, 1000k tbc
Stream mapping:
  Stream #1:0 -> #0:0 (rawvideo (native) -> flv1 (flv))
  Stream #0:0 -> #0:1 (pcm_u8 (native) -> mp3 (libmp3lame))
Press [q] to stop, [?] for help
Output #0, flv, to 'rtmp://a.rtmp.youtube.com/live2/628y-jagt-7b5c-4c9b':
  Metadata:
    encoder         : Lavf58.20.100
    Stream #0:0: Video: flv1 (flv) ([2][0][0][0] / 0x0002), yuv420p(progressive), 854x480, q=2-31, 1024 kb/s, 30 fps, 1k tbn, 30 tbc
    Metadata:
      encoder         : Lavc58.35.100 flv
    Side data:
      cpb: bitrate max/min/avg: 0/0/1024000 buffer size: 0 vbv_delay: -1
    Stream #0:1: Audio: mp3 (libmp3lame) ([2][0][0][0] / 0x0002), 44100 Hz, stereo, s16p
    Metadata:
      encoder         : Lavc58.35.100 libmp3lame
[x11grab @ 0x1ad22a0] Thread message queue blocking; consider raising the thread_queue_size option (current value: 8)
frame=    8 fps=0.0 q=2.0 size=      91kB time=00:00:00.57 bitrate=1288.4kbits/s speed=1.09x    frame=   19 fps= 18 q=2.0 size=     208kB time=00:00:01.09 bitrate=1548.9kbits/s dup=0 drop=2 speed=1.03x    frame=   31 fps= 20 q=2.0 size=     323kB time=00:00:01.56 bitrate=1687.2kbits/s dup=0 drop=2 speed=   1x    frame=   43 fps= 21 q=2.0 size=     438kB time=00:00:02.09 bitrate=1717.2kbits/s dup=0 drop=2 speed=1.01x    frame=   55 fps= 21 q=2.0 size=     555kB time=00:00:02.58 bitrate=1757.7kbits/s dup=0 drop=2 speed=1.01x    frame=   68 fps= 22 q=2.8 size=     675kB time=00:00:03.13 bitrate=1762.7kbits/s dup=0 drop=2 speed=1.01x    frame=   81 fps= 22 q=2.8 size=     782kB time=00:00:03.65 bitrate=1751.5kbits/s dup=0 drop=2 speed=1.01x    frame=   94 fps= 23 q=2.9 size=     885kB time=00:00:04.20 bitrate=1723.0kbits/s dup=0 drop=2 speed=1.02x    frame=  107 fps= 23 q=3.6 size=     979kB time=00:00:04.70 bitrate=1705.5kbits/s dup=0 drop=2 speed=1.02x    frame=  120 fps= 23 q=3.3 size=    1103kB time=00:00:05.22 bitrate=1728.4kbits/s dup=0 drop=2 speed=1.02x    frame=  134 fps= 24 q=9.2 size=    1268kB time=00:00:05.72 bitrate=1816.0kbits/s dup=0 drop=2 speed=1.01x    frame=  148 fps= 24 q=12.5 size=    1336kB time=00:00:06.24 bitrate=1752.8kbits/s dup=0 drop=2 speed=1.01x    frame=  162 fps= 24 q=11.7 size=    1398kB time=00:00:06.76 bitrate=1692.3kbits/s dup=0 drop=2 speed=1.01x    frame=  176 fps= 25 q=12.2 size=    1465kB time=00:00:07.26 bitrate=1652.9kbits/s dup=0 drop=2 speed=1.01x    frame=  190 fps= 25 q=8.4 size=    1526kB time=00:00:07.75 bitrate=1611.2kbits/s dup=0 drop=2 speed=1.01x    frame=  204 fps= 25 q=7.1 size=    1593kB time=00:00:08.30 bitrate=1571.1kbits/s dup=0 drop=2 speed=1.01x    frame=  217 fps= 25 q=5.7 size=    1659kB time=00:00:08.76 bitrate=1550.4kbits/s dup=0 drop=2 speed=1.01x    frame=  231 fps= 25 q=10.0 size=    1777kB time=00:00:09.30 bitrate=1565.3kbits/s dup=0 drop=2 speed=1.01x    frame=  245 fps= 25 q=13.4 size=    1845kB time=00:00:09.84 bitrate=1534.2kbits/s dup=0 drop=2 speed=1.01x    frame=  259 fps= 25 q=17.7 size=    1911kB time=00:00:10.31 bitrate=1517.4kbits/s dup=0 drop=2 speed=1.01x    frame=  273 fps= 25 q=10.9 size=    1968kB time=00:00:10.84 bitrate=1486.7kbits/s dup=0 drop=2 speed=1.01x    frame=  287 fps= 25 q=10.3 size=    2035kB time=00:00:11.33 bitrate=1470.0kbits/s dup=0 drop=2 speed=1.01x    frame=  301 fps= 26 q=5.6 size=    2137kB time=00:00:11.86 bitrate=1476.1kbits/s dup=0 drop=2 speed=1.01x    frame=  315 fps= 26 q=9.5 size=    2204kB time=00:00:12.35 bitrate=1461.4kbits/s dup=0 drop=2 speed=1.01x    frame=  329 fps= 26 q=12.6 size=    2267kB time=00:00:12.85 bitrate=1444.8kbits/s dup=0 drop=2 speed=1.01x    frame=  343 fps= 26 q=13.6 size=    2334kB time=00:00:13.37 bitrate=1429.7kbits/s dup=0 drop=2 speed=1.01x    frame=  357 fps= 26 q=8.6 size=    2395kB time=00:00:13.89 bitrate=1411.7kbits/s dup=0 drop=2 speed=1.01x    frame=  371 fps= 26 q=12.2 size=    2470kB time=00:00:14.39 bitrate=1405.8kbits/s dup=0 drop=2 speed=1.01x    frame=  385 fps= 26 q=5.4 size=    2526kB time=00:00:14.90 bitrate=1389.0kbits/s dup=0 drop=2 speed=1.01x    frame=  399 fps= 26 q=13.4 size=    2633kB time=00:00:15.43 bitrate=1397.3kbits/s dup=0 drop=2 speed=1.01x    frame=  413 fps= 26 q=8.2 size=    2682kB time=00:00:15.93 bitrate=1378.6kbits/s dup=0 drop=2 speed=1.01x    frame=  427 fps= 26 q=5.1 size=    2735kB time=00:00:16.40 bitrate=1365.9kbits/s dup=0 drop=2 speed=   1x    frame=  441 fps= 26 q=4.4 size=    2798kB time=00:00:16.92 bitrate=1353.8kbits/s dup=0 drop=2 speed=   1x    frame=  455 fps= 26 q=4.5 size=    2861kB time=00:00:17.45 bitrate=1342.9kbits/s dup=0 drop=2 speed=   1x    frame=  469 fps= 26 q=2.7 size=    2972kB time=00:00:17.97 bitrate=1354.5kbits/s dup=0 drop=2 speed=1.01x    frame=  483 fps= 26 q=7.1 size=    3035kB time=00:00:18.47 bitrate=1346.1kbits/s dup=0 drop=2 speed=   1x    frame=  497 fps= 26 q=5.3 size=    3098kB time=00:00:18.99 bitrate=1336.2kbits/s dup=0 drop=2 speed=   1x    frame=  511 fps= 26 q=5.4 size=    3177kB time=00:00:19.48 bitrate=1335.6kbits/s dup=0 drop=2 speed=   1x    frame=  525 fps= 26 q=4.6 size=    3239kB time=00:00:20.01 bitrate=1326.0kbits/s dup=0 drop=2 speed=   1x    frame=  539 fps= 26 q=4.4 size=    3302kB time=00:00:20.53 bitrate=1317.2kbits/s dup=0 drop=2 speed=   1x    frame=  553 fps= 26 q=3.1 size=    3355kB time=00:00:21.00 bitrate=1308.7kbits/s dup=0 drop=2 speed=   1x    frame=  567 fps= 26 q=4.6 size=    3468kB time=00:00:21.53 bitrate=1319.2kbits/s dup=0 drop=2 speed=   1x    frame=  581 fps= 26 q=4.7 size=    3523kB time=00:00:22.04 bitrate=1309.1kbits/s dup=0 drop=2 speed=   1x    frame=  595 fps= 26 q=5.1 size=    3578kB time=00:00:22.57 bitrate=1298.6kbits/s dup=0 drop=2 speed=   1x    frame=  609 fps= 26 q=3.8 size=    3643kB time=00:00:23.09 bitrate=1292.2kbits/s dup=0 drop=2 speed=   1x    frame=  623 fps= 26 q=3.5 size=    3723kB time=00:00:23.64 bitrate=1290.2kbits/s dup=0 drop=2 speed=   1x    frame=  637 fps= 26 q=3.6 size=    3843kB time=00:00:24.13 bitrate=1304.3kbits/s dup=0 drop=2 speed=   1x    frame=  651 fps= 26 q=5.9 size=    3906kB time=00:00:24.63 bitrate=1299.0kbits/s dup=0 drop=2 speed=   1x    frame=  665 fps= 27 q=5.0 size=    3970kB time=00:00:25.15 bitrate=1292.6kbits/s dup=0 drop=2 speed=   1x    frame=  679 fps= 27 q=4.4 size=    4033kB time=00:00:25.65 bitrate=1288.0kbits/s dup=0 drop=2 speed=   1x    frame=  693 fps= 27 q=4.4 size=    4091kB time=00:00:26.20 bitrate=1279.0kbits/s dup=0 drop=2 speed=   1x    frame=  707 fps= 27 q=4.7 size=    4145kB time=00:00:26.70 bitrate=1271.7kbits/s dup=0 drop=2 speed=   1x    frame=  721 fps= 27 q=2.8 size=    4226kB time=00:00:27.22 bitrate=1271.8kbits/s dup=0 drop=2 speed=   1x    frame=  735 fps= 27 q=6.2 size=    4338kB time=00:00:27.74 bitrate=1281.0kbits/s dup=0 drop=2 speed=   1x    frame=  749 fps= 27 q=4.7 size=    4418kB time=00:00:28.23 bitrate=1281.7kbits/s dup=0 drop=2 speed=   1x    frame=  760 fps= 27 q=7.2 size=    4470kB time=00:00:28.63 bitrate=1278.8kbits/s dup=0 drop=2 speed=0.999x    frame=  772 fps= 26 q=10.0 size=    4553kB time=00:00:29.20 bitrate=1277.2kbits/s dup=0 drop=2 speed=   1x    frame=  785 fps= 26 q=11.9 size=    4639kB time=00:00:29.73 bitrate=1278.1kbits/s dup=0 drop=2 speed=   1x    frame=  798 fps= 26 q=7.1 size=    4692kB time=00:00:30.27 bitrate=1269.5kbits/s dup=0 drop=2 speed=   1x    frame=  811 fps= 26 q=5.6 size=    4767kB time=00:00:30.77 bitrate=1269.0kbits/s dup=0 drop=2 speed=   1x    frame=  822 fps= 26 q=9.7 size=    4837kB time=00:00:31.16 bitrate=1271.4kbits/s dup=0 drop=2 speed=0.998x    frame=  836 fps= 26 q=7.3 size=    4896kB time=00:00:31.79 bitrate=1261.6kbits/s dup=0 drop=2 speed=   1x    frame=  849 fps= 26 q=7.1 size=    4957kB time=00:00:32.28 bitrate=1257.7kbits/s dup=0 drop=2 speed=   1x    frame=  861 fps= 26 q=9.8 size=    5042kB time=00:00:32.76 bitrate=1260.5kbits/s dup=0 drop=2 speed=   1x    frame=  874 fps= 26 q=6.5 size=    5114kB time=00:00:33.33 bitrate=1256.8kbits/s dup=0 drop=2 speed=   1x    frame=  886 fps= 26 q=6.8 size=    5174kB time=00:00:33.80 bitrate=1253.9kbits/s dup=0 drop=2 speed=   1x    frame=  898 fps= 26 q=8.9 size=    5246kB time=00:00:34.30 bitrate=1252.9kbits/s dup=0 drop=2 speed=   1x    frame=  911 fps= 26 q=5.7 size=    5326kB time=00:00:34.87 bitrate=1251.1kbits/s dup=0 drop=2 speed=   1x    frame=  925 fps= 26 q=7.7 size=    5427kB time=00:00:35.39 bitrate=1255.9kbits/s dup=0 drop=2 speed=   1x    frame=  939 fps= 26 q=6.0 size=    5500kB time=00:00:35.91 bitrate=1254.4kbits/s dup=0 drop=2 speed=   1x    frame=  952 fps= 26 q=8.5 size=    5571kB time=00:00:36.40 bitrate=1253.8kbits/s dup=0 drop=2 speed=   1x    frame=  966 fps= 26 q=4.9 size=    5634kB time=00:00:36.96 bitrate=1248.6kbits/s dup=0 drop=2 speed=   1x    frame=  978 fps= 26 q=5.5 size=    5691kB time=00:00:37.40 bitrate=1246.3kbits/s dup=0 drop=2 speed=   1x    frame=  991 fps= 26 q=6.8 size=    5755kB time=00:00:38.00 bitrate=1240.4kbits/s dup=0 drop=2 speed=   1x    frame= 1005 fps= 26 q=4.4 size=    5815kB time=00:00:38.50 bitrate=1237.1kbits/s dup=0 drop=2 speed=   1x    frame= 1016 fps= 26 q=4.9 size=    5894kB time=00:00:38.97 bitrate=1238.8kbits/s dup=0 drop=2 speed=   1x    frame= 1028 fps= 26 q=6.3 size=    5956kB time=00:00:39.52 bitrate=1234.5kbits/s dup=0 drop=2 speed=   1x    frame= 1040 fps= 26 q=3.6 size=    6014kB time=00:00:40.07 bitrate=1229.5kbits/s dup=0 drop=2 speed=   1x    frame= 1053 fps= 26 q=3.5 size=    6109kB time=00:00:40.59 bitrate=1232.8kbits/s dup=0 drop=2 speed=   1x    frame= 1066 fps= 26 q=5.4 size=    6193kB time=00:00:41.14 bitrate=1233.0kbits/s dup=0 drop=2 speed=   1x    frame= 1080 fps= 26 q=3.5 size=    6268kB time=00:00:41.66 bitrate=1232.4kbits/s dup=0 drop=2 speed=   1x    frame= 1085 fps= 26 q=6.4 size=    6335kB time=00:00:41.87 bitrate=1239.2kbits/s dup=0 drop=2 speed=0.994x    frame= 1091 fps= 26 q=5.5 size=    6343kB time=00:00:42.16 bitrate=1232.2kbits/s dup=0 drop=2 speed=0.989x    frame= 1097 fps= 25 q=5.4 size=    6406kB time=00:00:42.70 bitrate=1228.9kbits/s dup=0 drop=2 speed=0.988x    frame= 1103 fps= 25 q=4.0 size=    6426kB time=00:00:43.26 bitrate=1216.6kbits/s dup=0 drop=2 speed=0.987x    frame= 1108 fps= 25 q=3.8 size=    6484kB time=00:00:43.73 bitrate=1214.5kbits/s dup=0 drop=2 speed=0.986x    frame= 1117 fps= 25 q=2.8 size=    6540kB time=00:00:44.70 bitrate=1198.6kbits/s dup=0 drop=2 speed=0.997x    frame= 1130 fps= 25 q=3.6 size=    6720kB time=00:00:45.42 bitrate=1211.8kbits/s dup=0 drop=2 speed=   1x    frame= 1143 fps= 25 q=5.7 size=    6834kB time=00:00:45.97 bitrate=1217.8kbits/s dup=0 drop=2 speed=   1x    frame= 1156 fps= 25 q=6.5 size=    6939kB time=00:00:46.47 bitrate=1223.1kbits/s dup=0 drop=2 speed=   1x    frame= 1169 fps= 25 q=2.6 size=    7011kB time=00:00:46.99 bitrate=1222.1kbits/s dup=0 drop=2 speed=   1x    frame= 1182 fps= 25 q=3.9 size=    7104kB time=00:00:47.54 bitrate=1224.0kbits/s dup=0 drop=2 speed=   1x    frame= 1195 fps= 25 q=5.9 size=    7170kB time=00:00:48.04 bitrate=1222.7kbits/s dup=0 drop=2 speed=   1x    frame= 1208 fps= 25 q=5.9 size=    7233kB time=00:00:48.53 bitrate=1220.9kbits/s dup=0 drop=2 speed=   1x    frame= 1221 fps= 25 q=4.2 size=    7308kB time=00:00:49.05 bitrate=1220.4kbits/s dup=0 drop=2 speed=   1x    frame= 1234 fps= 25 q=4.8 size=    7372kB time=00:00:49.55 bitrate=1218.7kbits/s dup=0 drop=2 speed=   1x    frame= 1247 fps= 25 q=5.7 size=    7455kB time=00:00:50.10 bitrate=1218.9kbits/s dup=0 drop=2 speed=   1x    frame= 1261 fps= 25 q=3.2 size=    7560kB time=00:00:50.62 bitrate=1223.3kbits/s dup=0 drop=2 speed=   1x    frame= 1274 fps= 25 q=4.7 size=    7646kB time=00:00:51.10 bitrate=1225.7kbits/s dup=0 drop=2 speed=   1x    frame= 1286 fps= 25 q=4.0 size=    7723kB time=00:00:51.67 bitrate=1224.4kbits/s dup=0 drop=2 speed=   1x    frame= 1298 fps= 25 q=6.0 size=    7787kB time=00:00:52.14 bitrate=1223.4kbits/s dup=0 drop=2 speed=   1x    frame= 1309 fps= 25 q=4.3 size=    7805kB time=00:00:52.63 bitrate=1214.6kbits/s dup=0 drop=2 speed=   1x    frame= 1322 fps= 25 q=6.8 size=    7927kB time=00:00:53.23 bitrate=1219.8kbits/s dup=0 drop=2 speed=   1x    frame= 1335 fps= 25 q=4.3 size=    8010kB time=00:00:53.76 bitrate=1220.5kbits/s dup=0 drop=2 speed=   1x    frame= 1349 fps= 25 q=5.4 size=    8081kB time=00:00:54.23 bitrate=1220.6kbits/s dup=0 drop=2 speed=   1x    frame= 1363 fps= 25 q=9.0 size=    8162kB time=00:00:54.76 bitrate=1220.8kbits/s dup=0 drop=2 speed=   1x    frame= 1377 fps= 25 q=5.3 size=    8227kB time=00:00:55.27 bitrate=1219.3kbits/s dup=0 drop=2 speed=   1x    frame= 1391 fps= 25 q=3.6 size=    8288kB time=00:00:55.77 bitrate=1217.3kbits/s dup=0 drop=2 speed=   1x    frame= 1405 fps= 25 q=2.3 size=    8417kB time=00:00:56.29 bitrate=1224.8kbits/s dup=0 drop=2 speed=   1x    frame= 1420 fps= 25 q=7.3 size=    8472kB time=00:00:56.84 bitrate=1220.9kbits/s dup=0 drop=2 speed=   1x    frame= 1433 fps= 25 q=10.8 size=    8536kB time=00:00:57.26 bitrate=1221.2kbits/s dup=0 drop=2 speed=   1x    frame= 1445 fps= 25 q=5.4 size=    8578kB time=00:00:57.75 bitrate=1216.7kbits/s dup=0 drop=2 speed=   1x    frame= 1458 fps= 25 q=4.7 size=    8635kB time=00:00:58.33 bitrate=1212.7kbits/s dup=0 drop=2 speed=   1x    frame= 1472 fps= 25 q=3.9 size=    8721kB time=00:00:58.83 bitrate=1214.3kbits/s dup=0 drop=2 speed=   1x    frame= 1486 fps= 25 q=4.8 size=    8785kB time=00:00:59.33 bitrate=1212.9kbits/s dup=0 drop=2 speed=   1x    frame= 1499 fps= 25 q=2.4 size=    8847kB time=00:00:59.82 bitrate=1211.5kbits/s dup=0 drop=2 speed=   1x    frame= 1511 fps= 25 q=4.6 size=    8913kB time=00:01:00.34 bitrate=1210.0kbits/s dup=0 drop=2 speed=   1x    frame= 1525 fps= 25 q=2.2 size=    8982kB time=00:01:00.89 bitrate=1208.4kbits/s dup=0 drop=2 speed=   1x    frame= 1539 fps= 25 q=6.6 size=    9113kB time=00:01:01.44 bitrate=1215.1kbits/s dup=0 drop=2 speed=   1x    frame= 1553 fps= 25 q=4.4 size=    9172kB time=00:01:01.93 bitrate=1213.1kbits/s dup=0 drop=2 speed=   1x    frame= 1567 fps= 25 q=5.5 size=    9242kB time=00:01:02.43 bitrate=1212.7kbits/s dup=0 drop=2 speed=   1x    frame= 1581 fps= 25 q=4.5 size=    9313kB time=00:01:02.93 bitrate=1212.3kbits/s dup=0 drop=2 speed=   1x    [flv @ 0x1adb940] Failed to update header with correct duration.
[flv @ 0x1adb940] Failed to update header with correct filesize.
frame= 1594 fps= 25 q=5.3 Lsize=    9385kB time=00:01:03.50 bitrate=1210.7kbits/s dup=0 drop=2 speed=   1x    
video:8330kB audio:993kB subtitle:0kB other streams:0kB global headers:0kB muxing overhead: 0.678164%
